<svg width="632" height="617" viewBox="0 0 632 617" fill="none" xmlns="http://www.w3.org/2000/svg">
<g filter="url(#filter0_d_38_1626)">
<ellipse cx="246.797" cy="12.1416" rx="13.4432" ry="11.1416" fill="#4AACFF"/>
<path d="M246.797 24.2832C254.59 24.2832 261.24 19.0148 261.24 12.1416C261.24 5.26842 254.59 0 246.797 0C239.004 0 232.354 5.26842 232.354 12.1416C232.354 19.0148 239.004 24.2832 246.797 24.2832Z" stroke="white" stroke-width="2"/>
</g>
<g filter="url(#filter1_d_38_1626)">
<ellipse cx="278.991" cy="15.435" rx="13.4432" ry="11.1416" fill="#4AACFF"/>
<path d="M278.991 27.5766C286.783 27.5766 293.434 22.3082 293.434 15.435C293.434 8.56188 286.783 3.29346 278.991 3.29346C271.198 3.29346 264.547 8.56188 264.547 15.435C264.547 22.3082 271.198 27.5766 278.991 27.5766Z" stroke="white" stroke-width="2"/>
</g>
<g filter="url(#filter2_d_38_1626)">
<ellipse cx="73.9158" cy="106.344" rx="13.4432" ry="11.1416" fill="#4AACFF"/>
<path d="M73.9158 118.486C81.7086 118.486 88.359 113.217 88.359 106.344C88.359 99.4708 81.7086 94.2024 73.9158 94.2024C66.1231 94.2024 59.4727 99.4708 59.4727 106.344C59.4727 113.217 66.1231 118.486 73.9158 118.486Z" stroke="white" stroke-width="2"/>
</g>
<g filter="url(#filter3_d_38_1626)">
<ellipse cx="353.77" cy="98.2715" rx="13.4432" ry="11.1416" fill="#4AACFF"/>
<path d="M353.77 110.413C361.563 110.413 368.214 105.145 368.214 98.2715C368.214 91.3983 361.563 86.1299 353.77 86.1299C345.978 86.1299 339.327 91.3983 339.327 98.2715C339.327 105.145 345.978 110.413 353.77 110.413Z" stroke="white" stroke-width="2"/>
</g>
<g filter="url(#filter4_d_38_1626)">
<ellipse cx="379.88" cy="110.383" rx="13.4432" ry="11.1416" fill="#4AACFF"/>
<path d="M379.88 122.524C387.673 122.524 394.323 117.256 394.323 110.383C394.323 103.51 387.673 98.2412 379.88 98.2412C372.087 98.2412 365.437 103.51 365.437 110.383C365.437 117.256 372.087 122.524 379.88 122.524Z" stroke="white" stroke-width="2"/>
</g>
<g filter="url(#filter5_d_38_1626)">
<ellipse cx="360.361" cy="110.383" rx="13.4432" ry="11.1416" fill="#4AACFF"/>
<path d="M360.361 122.524C368.154 122.524 374.804 117.256 374.804 110.383C374.804 103.51 368.154 98.2412 360.361 98.2412C352.568 98.2412 345.918 103.51 345.918 110.383C345.918 117.256 352.568 122.524 360.361 122.524Z" stroke="white" stroke-width="2"/>
</g>
<g filter="url(#filter6_d_38_1626)">
<ellipse cx="383.936" cy="75.1936" rx="13.4432" ry="11.1416" fill="#4AACFF"/>
<path d="M383.936 87.3352C391.729 87.3352 398.379 82.0668 398.379 75.1936C398.379 68.3204 391.729 63.052 383.936 63.052C376.143 63.052 369.493 68.3204 369.493 75.1936C369.493 82.0668 376.143 87.3352 383.936 87.3352Z" stroke="white" stroke-width="2"/>
</g>
<g filter="url(#filter7_d_38_1626)">
<ellipse cx="610.557" cy="210.71" rx="13.4432" ry="11.1416" fill="#4AACFF"/>
<path d="M610.557 222.852C618.35 222.852 625 217.584 625 210.71C625 203.837 618.35 198.569 610.557 198.569C602.764 198.569 596.114 203.837 596.114 210.71C596.114 217.584 602.764 222.852 610.557 222.852Z" stroke="white" stroke-width="2"/>
</g>
<g filter="url(#filter8_d_38_1626)">
<ellipse cx="383.936" cy="361.561" rx="13.4432" ry="11.1416" fill="#4AACFF"/>
<path d="M383.936 373.702C391.729 373.702 398.379 368.434 398.379 361.561C398.379 354.687 391.729 349.419 383.936 349.419C376.143 349.419 369.493 354.687 369.493 361.561C369.493 368.434 376.143 373.702 383.936 373.702Z" stroke="white" stroke-width="2"/>
</g>
<g filter="url(#filter9_d_38_1626)">
<ellipse cx="291.411" cy="597.858" rx="13.4432" ry="11.1416" fill="#4AACFF"/>
<path d="M291.411 610C299.204 610 305.855 604.731 305.855 597.858C305.855 590.985 299.204 585.717 291.411 585.717C283.619 585.717 276.968 590.985 276.968 597.858C276.968 604.731 283.619 610 291.411 610Z" stroke="white" stroke-width="2"/>
</g>
<g filter="url(#filter10_d_38_1626)">
<ellipse cx="313.972" cy="582.842" rx="13.4432" ry="11.1416" fill="#4AACFF"/>
<path d="M313.972 594.983C321.765 594.983 328.415 589.715 328.415 582.842C328.415 575.969 321.765 570.7 313.972 570.7C306.179 570.7 299.529 575.969 299.529 582.842C299.529 589.715 306.179 594.983 313.972 594.983Z" stroke="white" stroke-width="2"/>
</g>
<g filter="url(#filter11_d_38_1626)">
<ellipse cx="21.4432" cy="299.525" rx="13.4432" ry="11.1416" fill="#4AACFF"/>
<path d="M21.4432 311.666C29.236 311.666 35.8864 306.398 35.8864 299.525C35.8864 292.652 29.236 287.383 21.4432 287.383C13.6504 287.383 7 292.652 7 299.525C7 306.398 13.6504 311.666 21.4432 311.666Z" stroke="white" stroke-width="2"/>
</g>
<g filter="url(#filter12_d_38_1626)">
<ellipse cx="291.583" cy="103.783" rx="17.9242" ry="14.8555" fill="#4AACFF"/>
<path d="M291.583 119.639C301.851 119.639 310.507 112.707 310.507 103.783C310.507 94.8589 301.851 87.9277 291.583 87.9277C281.316 87.9277 272.659 94.8589 272.659 103.783C272.659 112.707 281.316 119.639 291.583 119.639Z" stroke="white" stroke-width="2"/>
</g>
<defs>
<filter id="filter0_d_38_1626" x="225.354" y="-7" width="42.8865" height="38.2832" filterUnits="userSpaceOnUse" color-interpolation-filters="sRGB">
<feFlood flood-opacity="0" result="BackgroundImageFix"/>
<feColorMatrix in="SourceAlpha" type="matrix" values="0 0 0 0 0 0 0 0 0 0 0 0 0 0 0 0 0 0 127 0" result="hardAlpha"/>
<feOffset/>
<feGaussianBlur stdDeviation="3"/>
<feComposite in2="hardAlpha" operator="out"/>
<feColorMatrix type="matrix" values="0 0 0 0 0.1875 0 0 0 0 0.1875 0 0 0 0 0.1875 0 0 0 0.27 0"/>
<feBlend mode="normal" in2="BackgroundImageFix" result="effect1_dropShadow_38_1626"/>
<feBlend mode="normal" in="SourceGraphic" in2="effect1_dropShadow_38_1626" result="shape"/>
</filter>
<filter id="filter1_d_38_1626" x="257.547" y="-3.70654" width="42.8865" height="38.2832" filterUnits="userSpaceOnUse" color-interpolation-filters="sRGB">
<feFlood flood-opacity="0" result="BackgroundImageFix"/>
<feColorMatrix in="SourceAlpha" type="matrix" values="0 0 0 0 0 0 0 0 0 0 0 0 0 0 0 0 0 0 127 0" result="hardAlpha"/>
<feOffset/>
<feGaussianBlur stdDeviation="3"/>
<feComposite in2="hardAlpha" operator="out"/>
<feColorMatrix type="matrix" values="0 0 0 0 0.1875 0 0 0 0 0.1875 0 0 0 0 0.1875 0 0 0 0.27 0"/>
<feBlend mode="normal" in2="BackgroundImageFix" result="effect1_dropShadow_38_1626"/>
<feBlend mode="normal" in="SourceGraphic" in2="effect1_dropShadow_38_1626" result="shape"/>
</filter>
<filter id="filter2_d_38_1626" x="52.4727" y="87.2024" width="42.8865" height="38.2832" filterUnits="userSpaceOnUse" color-interpolation-filters="sRGB">
<feFlood flood-opacity="0" result="BackgroundImageFix"/>
<feColorMatrix in="SourceAlpha" type="matrix" values="0 0 0 0 0 0 0 0 0 0 0 0 0 0 0 0 0 0 127 0" result="hardAlpha"/>
<feOffset/>
<feGaussianBlur stdDeviation="3"/>
<feComposite in2="hardAlpha" operator="out"/>
<feColorMatrix type="matrix" values="0 0 0 0 0.1875 0 0 0 0 0.1875 0 0 0 0 0.1875 0 0 0 0.27 0"/>
<feBlend mode="normal" in2="BackgroundImageFix" result="effect1_dropShadow_38_1626"/>
<feBlend mode="normal" in="SourceGraphic" in2="effect1_dropShadow_38_1626" result="shape"/>
</filter>
<filter id="filter3_d_38_1626" x="332.327" y="79.1299" width="42.8862" height="38.2832" filterUnits="userSpaceOnUse" color-interpolation-filters="sRGB">
<feFlood flood-opacity="0" result="BackgroundImageFix"/>
<feColorMatrix in="SourceAlpha" type="matrix" values="0 0 0 0 0 0 0 0 0 0 0 0 0 0 0 0 0 0 127 0" result="hardAlpha"/>
<feOffset/>
<feGaussianBlur stdDeviation="3"/>
<feComposite in2="hardAlpha" operator="out"/>
<feColorMatrix type="matrix" values="0 0 0 0 0.1875 0 0 0 0 0.1875 0 0 0 0 0.1875 0 0 0 0.27 0"/>
<feBlend mode="normal" in2="BackgroundImageFix" result="effect1_dropShadow_38_1626"/>
<feBlend mode="normal" in="SourceGraphic" in2="effect1_dropShadow_38_1626" result="shape"/>
</filter>
<filter id="filter4_d_38_1626" x="358.437" y="91.2412" width="42.8862" height="38.2832" filterUnits="userSpaceOnUse" color-interpolation-filters="sRGB">
<feFlood flood-opacity="0" result="BackgroundImageFix"/>
<feColorMatrix in="SourceAlpha" type="matrix" values="0 0 0 0 0 0 0 0 0 0 0 0 0 0 0 0 0 0 127 0" result="hardAlpha"/>
<feOffset/>
<feGaussianBlur stdDeviation="3"/>
<feComposite in2="hardAlpha" operator="out"/>
<feColorMatrix type="matrix" values="0 0 0 0 0.1875 0 0 0 0 0.1875 0 0 0 0 0.1875 0 0 0 0.27 0"/>
<feBlend mode="normal" in2="BackgroundImageFix" result="effect1_dropShadow_38_1626"/>
<feBlend mode="normal" in="SourceGraphic" in2="effect1_dropShadow_38_1626" result="shape"/>
</filter>
<filter id="filter5_d_38_1626" x="338.918" y="91.2412" width="42.8865" height="38.2832" filterUnits="userSpaceOnUse" color-interpolation-filters="sRGB">
<feFlood flood-opacity="0" result="BackgroundImageFix"/>
<feColorMatrix in="SourceAlpha" type="matrix" values="0 0 0 0 0 0 0 0 0 0 0 0 0 0 0 0 0 0 127 0" result="hardAlpha"/>
<feOffset/>
<feGaussianBlur stdDeviation="3"/>
<feComposite in2="hardAlpha" operator="out"/>
<feColorMatrix type="matrix" values="0 0 0 0 0.1875 0 0 0 0 0.1875 0 0 0 0 0.1875 0 0 0 0.27 0"/>
<feBlend mode="normal" in2="BackgroundImageFix" result="effect1_dropShadow_38_1626"/>
<feBlend mode="normal" in="SourceGraphic" in2="effect1_dropShadow_38_1626" result="shape"/>
</filter>
<filter id="filter6_d_38_1626" x="362.493" y="56.052" width="42.8862" height="38.2832" filterUnits="userSpaceOnUse" color-interpolation-filters="sRGB">
<feFlood flood-opacity="0" result="BackgroundImageFix"/>
<feColorMatrix in="SourceAlpha" type="matrix" values="0 0 0 0 0 0 0 0 0 0 0 0 0 0 0 0 0 0 127 0" result="hardAlpha"/>
<feOffset/>
<feGaussianBlur stdDeviation="3"/>
<feComposite in2="hardAlpha" operator="out"/>
<feColorMatrix type="matrix" values="0 0 0 0 0.1875 0 0 0 0 0.1875 0 0 0 0 0.1875 0 0 0 0.27 0"/>
<feBlend mode="normal" in2="BackgroundImageFix" result="effect1_dropShadow_38_1626"/>
<feBlend mode="normal" in="SourceGraphic" in2="effect1_dropShadow_38_1626" result="shape"/>
</filter>
<filter id="filter7_d_38_1626" x="589.114" y="191.569" width="42.8862" height="38.2832" filterUnits="userSpaceOnUse" color-interpolation-filters="sRGB">
<feFlood flood-opacity="0" result="BackgroundImageFix"/>
<feColorMatrix in="SourceAlpha" type="matrix" values="0 0 0 0 0 0 0 0 0 0 0 0 0 0 0 0 0 0 127 0" result="hardAlpha"/>
<feOffset/>
<feGaussianBlur stdDeviation="3"/>
<feComposite in2="hardAlpha" operator="out"/>
<feColorMatrix type="matrix" values="0 0 0 0 0.1875 0 0 0 0 0.1875 0 0 0 0 0.1875 0 0 0 0.27 0"/>
<feBlend mode="normal" in2="BackgroundImageFix" result="effect1_dropShadow_38_1626"/>
<feBlend mode="normal" in="SourceGraphic" in2="effect1_dropShadow_38_1626" result="shape"/>
</filter>
<filter id="filter8_d_38_1626" x="362.493" y="342.419" width="42.8862" height="38.2832" filterUnits="userSpaceOnUse" color-interpolation-filters="sRGB">
<feFlood flood-opacity="0" result="BackgroundImageFix"/>
<feColorMatrix in="SourceAlpha" type="matrix" values="0 0 0 0 0 0 0 0 0 0 0 0 0 0 0 0 0 0 127 0" result="hardAlpha"/>
<feOffset/>
<feGaussianBlur stdDeviation="3"/>
<feComposite in2="hardAlpha" operator="out"/>
<feColorMatrix type="matrix" values="0 0 0 0 0.1875 0 0 0 0 0.1875 0 0 0 0 0.1875 0 0 0 0.27 0"/>
<feBlend mode="normal" in2="BackgroundImageFix" result="effect1_dropShadow_38_1626"/>
<feBlend mode="normal" in="SourceGraphic" in2="effect1_dropShadow_38_1626" result="shape"/>
</filter>
<filter id="filter9_d_38_1626" x="269.968" y="578.717" width="42.8865" height="38.2832" filterUnits="userSpaceOnUse" color-interpolation-filters="sRGB">
<feFlood flood-opacity="0" result="BackgroundImageFix"/>
<feColorMatrix in="SourceAlpha" type="matrix" values="0 0 0 0 0 0 0 0 0 0 0 0 0 0 0 0 0 0 127 0" result="hardAlpha"/>
<feOffset/>
<feGaussianBlur stdDeviation="3"/>
<feComposite in2="hardAlpha" operator="out"/>
<feColorMatrix type="matrix" values="0 0 0 0 0.1875 0 0 0 0 0.1875 0 0 0 0 0.1875 0 0 0 0.27 0"/>
<feBlend mode="normal" in2="BackgroundImageFix" result="effect1_dropShadow_38_1626"/>
<feBlend mode="normal" in="SourceGraphic" in2="effect1_dropShadow_38_1626" result="shape"/>
</filter>
<filter id="filter10_d_38_1626" x="292.529" y="563.7" width="42.8865" height="38.2832" filterUnits="userSpaceOnUse" color-interpolation-filters="sRGB">
<feFlood flood-opacity="0" result="BackgroundImageFix"/>
<feColorMatrix in="SourceAlpha" type="matrix" values="0 0 0 0 0 0 0 0 0 0 0 0 0 0 0 0 0 0 127 0" result="hardAlpha"/>
<feOffset/>
<feGaussianBlur stdDeviation="3"/>
<feComposite in2="hardAlpha" operator="out"/>
<feColorMatrix type="matrix" values="0 0 0 0 0.1875 0 0 0 0 0.1875 0 0 0 0 0.1875 0 0 0 0.27 0"/>
<feBlend mode="normal" in2="BackgroundImageFix" result="effect1_dropShadow_38_1626"/>
<feBlend mode="normal" in="SourceGraphic" in2="effect1_dropShadow_38_1626" result="shape"/>
</filter>
<filter id="filter11_d_38_1626" x="0" y="280.383" width="42.8865" height="38.2832" filterUnits="userSpaceOnUse" color-interpolation-filters="sRGB">
<feFlood flood-opacity="0" result="BackgroundImageFix"/>
<feColorMatrix in="SourceAlpha" type="matrix" values="0 0 0 0 0 0 0 0 0 0 0 0 0 0 0 0 0 0 127 0" result="hardAlpha"/>
<feOffset/>
<feGaussianBlur stdDeviation="3"/>
<feComposite in2="hardAlpha" operator="out"/>
<feColorMatrix type="matrix" values="0 0 0 0 0.1875 0 0 0 0 0.1875 0 0 0 0 0.1875 0 0 0 0.27 0"/>
<feBlend mode="normal" in2="BackgroundImageFix" result="effect1_dropShadow_38_1626"/>
<feBlend mode="normal" in="SourceGraphic" in2="effect1_dropShadow_38_1626" result="shape"/>
</filter>
<filter id="filter12_d_38_1626" x="251.659" y="66.9277" width="79.8484" height="73.7109" filterUnits="userSpaceOnUse" color-interpolation-filters="sRGB">
<feFlood flood-opacity="0" result="BackgroundImageFix"/>
<feColorMatrix in="SourceAlpha" type="matrix" values="0 0 0 0 0 0 0 0 0 0 0 0 0 0 0 0 0 0 127 0" result="hardAlpha"/>
<feOffset/>
<feGaussianBlur stdDeviation="10"/>
<feComposite in2="hardAlpha" operator="out"/>
<feColorMatrix type="matrix" values="0 0 0 0 0.160784 0 0 0 0 0.607843 0 0 0 0 0.847059 0 0 0 1 0"/>
<feBlend mode="normal" in2="BackgroundImageFix" result="effect1_dropShadow_38_1626"/>
<feBlend mode="normal" in="SourceGraphic" in2="effect1_dropShadow_38_1626" result="shape"/>
</filter>
</defs>
</svg>
